STARTFONT 2.1
COMMENT Created by fdbbdf
FONT helvetica16i
SIZE 16 78 78
FONTBOUNDINGBOX 21 18 -2 -5
STARTPROPERTIES 4
Ownership "  Copyright (c) 1984 Adobe Systems, Inc.  /adobe/fonttools/stdfontvec.ps HM18.bits  TOTAL BITMAP BYTES 2307  TOTAL BITMAP BYTES 2335  GUIDELINES -4 10 0 14 -4 -4 DONE  WIDTHERR -251 -94  "
FONT_ASCENT 13
FONT_DESCENT 5
DEFAULT_CHAR 32
ENDPROPERTIES
CHARS 95
STARTCHAR sp
ENCODING -1 32
SWIDTH 0 0
DWIDTH 5 0
BBX 0 0 0 0
BITMAP
ENDCHAR
STARTCHAR !
ENCODING -1 33
SWIDTH 0 0
DWIDTH 5 0
BBX 5 14 2 -1
BITMAP
1800
1800
1800
3000
3000
3000
3000
6000
6000
6000
0000
0000
c000
c000
ENDCHAR
STARTCHAR "
ENCODING -1 34
SWIDTH 0 0
DWIDTH 7 0
BBX 6 4 3 9
BITMAP
6c00
6c00
d800
9000
ENDCHAR
STARTCHAR #
ENCODING -1 35
SWIDTH 0 0
DWIDTH 11 0
BBX 11 13 1 -1
BITMAP
0240
06c0
0480
3fe0
3fe0
0900
1b00
1200
ff80
ff80
2400
6c00
4800
ENDCHAR
STARTCHAR $
ENCODING -1 36
SWIDTH 0 0
DWIDTH 10 0
BBX 10 15 1 -2
BITMAP
0200
1f00
3f80
75c0
64c0
74c0
3c00
1e00
0f00
cb80
c980
eb80
7f00
3e00
1000
ENDCHAR
STARTCHAR %
ENCODING -1 37
SWIDTH 0 0
DWIDTH 16 0
BBX 12 13 3 -1
BITMAP
3830
7c60
ccc0
cd80
f980
7300
0600
0ce0
19f0
1b30
3330
63e0
c1c0
ENDCHAR
STARTCHAR &
ENCODING -1 38
SWIDTH 0 0
DWIDTH 12 0
BBX 10 13 1 -1
BITMAP
0e00
1f00
3180
3180
3300
1e00
3c40
66c0
c380
c300
c700
7d80
38c0
ENDCHAR
STARTCHAR '
ENCODING -1 39
SWIDTH 0 0
DWIDTH 4 0
BBX 3 4 3 9
BITMAP
6000
6000
2000
c000
ENDCHAR
STARTCHAR (
ENCODING -1 40
SWIDTH 0 0
DWIDTH 6 0
BBX 8 18 1 -5
BITMAP
0300
0600
0c00
1800
3000
3000
6000
6000
c000
c000
c000
c000
c000
c000
c000
6000
6000
3000
ENDCHAR
STARTCHAR )
ENCODING -1 41
SWIDTH 0 0
DWIDTH 6 0
BBX 8 18 -1 -5
BITMAP
0c00
0600
0600
0300
0300
0300
0300
0300
0300
0300
0600
0600
0c00
0c00
1800
3000
6000
c000
ENDCHAR
STARTCHAR *
ENCODING -1 42
SWIDTH 0 0
DWIDTH 8 0
BBX 5 6 3 7
BITMAP
2000
a800
f800
6000
f000
9000
ENDCHAR
STARTCHAR +
ENCODING -1 43
SWIDTH 0 0
DWIDTH 11 0
BBX 10 10 1 0
BITMAP
0c00
0c00
0c00
0c00
ffc0
ffc0
0c00
0c00
0c00
0c00
ENDCHAR
STARTCHAR ,
ENCODING -1 44
SWIDTH 0 0
DWIDTH 5 0
BBX 3 5 1 -4
BITMAP
6000
6000
2000
c000
0000
ENDCHAR
STARTCHAR -
ENCODING -1 45
SWIDTH 0 0
DWIDTH 8 0
BBX 7 2 1 4
BITMAP
7e00
7e00
ENDCHAR
STARTCHAR .
ENCODING -1 46
SWIDTH 0 0
DWIDTH 5 0
BBX 2 2 2 -1
BITMAP
c000
c000
ENDCHAR
STARTCHAR /
ENCODING -1 47
SWIDTH 0 0
DWIDTH 5 0
BBX 8 14 0 -1
BITMAP
0300
0300
0600
0600
0c00
0c00
1800
1800
3000
3000
6000
6000
c000
c000
ENDCHAR
STARTCHAR 0
ENCODING -1 48
SWIDTH 0 0
DWIDTH 10 0
BBX 9 13 2 -1
BITMAP
0e00
3f00
3380
6180
6180
6180
c180
c300
c300
c300
e600
7e00
3800
ENDCHAR
STARTCHAR 1
ENCODING -1 49
SWIDTH 0 0
DWIDTH 7 0
BBX 6 13 1 -1
BITMAP
0c00
1c00
7800
7800
1800
1800
3000
3000
3000
3000
6000
6000
6000
ENDCHAR
STARTCHAR 2
ENCODING -1 50
SWIDTH 0 0
DWIDTH 10 0
BBX 10 13 1 -1
BITMAP
0f00
1f80
38c0
30c0
01c0
0380
0700
0e00
1c00
3800
7000
ff00
ff00
ENDCHAR
STARTCHAR 3
ENCODING -1 51
SWIDTH 0 0
DWIDTH 10 0
BBX 10 13 1 -1
BITMAP
1f00
3f80
31c0
00c0
01c0
0f80
0f00
0380
0180
c180
e300
7f00
3c00
ENDCHAR
STARTCHAR 4
ENCODING -1 52
SWIDTH 0 0
DWIDTH 11 0
BBX 10 13 2 -1
BITMAP
01c0
03c0
06c0
0d80
1980
3180
6300
c300
ff80
ff80
0600
0600
0600
ENDCHAR
STARTCHAR 5
ENCODING -1 53
SWIDTH 0 0
DWIDTH 10 0
BBX 10 13 1 -1
BITMAP
0fc0
1fc0
1800
3000
3e00
7f00
6380
0180
0180
c180
e300
7f00
3c00
ENDCHAR
STARTCHAR 6
ENCODING -1 54
SWIDTH 0 0
DWIDTH 10 0
BBX 10 13 1 -1
BITMAP
0780
1fc0
38c0
3000
6000
7e00
ff00
e380
c180
c180
e300
7f00
3c00
ENDCHAR
STARTCHAR 7
ENCODING -1 55
SWIDTH 0 0
DWIDTH 10 0
BBX 10 13 1 -1
BITMAP
3fc0
3fc0
0180
0300
0600
0600
0c00
1800
1800
3000
3000
6000
6000
ENDCHAR
STARTCHAR 8
ENCODING -1 56
SWIDTH 0 0
DWIDTH 11 0
BBX 10 13 2 -1
BITMAP
1f00
3f80
71c0
60c0
71c0
3f80
7f00
e380
c180
c180
e380
7f00
3e00
ENDCHAR
STARTCHAR 9
ENCODING -1 57
SWIDTH 0 0
DWIDTH 10 0
BBX 10 13 1 -1
BITMAP
0f00
3f80
31c0
60c0
60c0
71c0
3fc0
1f80
0180
0300
c700
fe00
7800
ENDCHAR
STARTCHAR :
ENCODING -1 58
SWIDTH 0 0
DWIDTH 5 0
BBX 4 10 1 -1
BITMAP
0000
3000
3000
0000
0000
0000
0000
c000
c000
0000
ENDCHAR
STARTCHAR ;
ENCODING -1 59
SWIDTH 0 0
DWIDTH 5 0
BBX 5 13 0 -4
BITMAP
0000
1800
1800
0000
0000
0000
0000
6000
6000
2000
c000
0000
0000
ENDCHAR
STARTCHAR <
ENCODING -1 60
SWIDTH 0 0
DWIDTH 11 0
BBX 9 9 1 1
BITMAP
0180
0780
1e00
7800
e000
7800
1e00
0780
0180
ENDCHAR
STARTCHAR =
ENCODING -1 61
SWIDTH 0 0
DWIDTH 11 0
BBX 9 6 1 2
BITMAP
7f80
7f80
0000
0000
7f80
7f80
ENDCHAR
STARTCHAR >
ENCODING -1 62
SWIDTH 0 0
DWIDTH 11 0
BBX 10 9 1 1
BITMAP
6000
7800
1e00
0780
01c0
0780
1e00
7800
6000
ENDCHAR
STARTCHAR ?
ENCODING -1 63
SWIDTH 0 0
DWIDTH 10 0
BBX 8 14 3 -1
BITMAP
3e00
7f00
e300
c700
0e00
1c00
3800
7000
6000
6000
0000
0000
c000
c000
ENDCHAR
STARTCHAR @
ENCODING -1 64
SWIDTH 0 0
DWIDTH 18 0
BBX 17 17 2 -4
BITMAP
01f80000
07fe0000
0e030000
18010000
31ed8000
63398000
66198000
c6318000
cc330000
cc630000
cce60000
cdac0000
c7380000
60000000
70000000
3fe00000
0fe00000
ENDCHAR
STARTCHAR A
ENCODING -1 65
SWIDTH 0 0
DWIDTH 12 0
BBX 11 14 0 -1
BITMAP
00c0
01c0
03c0
0360
0660
0660
0c60
1c60
1860
3fe0
7fe0
6060
c060
c060
ENDCHAR
STARTCHAR B
ENCODING -1 66
SWIDTH 0 0
DWIDTH 13 0
BBX 11 14 2 -1
BITMAP
1fc0
1fe0
1860
3060
3060
30c0
3f80
7fc0
60c0
60c0
60c0
c180
ff00
fe00
ENDCHAR
STARTCHAR C
ENCODING -1 67
SWIDTH 0 0
DWIDTH 13 0
BBX 13 14 2 -1
BITMAP
03c0
0fe0
1c70
3030
6030
6000
c000
c000
c000
c000
c0c0
61c0
7f80
1e00
ENDCHAR
STARTCHAR D
ENCODING -1 68
SWIDTH 0 0
DWIDTH 13 0
BBX 13 14 1 -1
BITMAP
1fc0
1ff0
1830
3018
3018
3018
3018
6018
6030
6030
6060
c1c0
ff80
fe00
ENDCHAR
STARTCHAR E
ENCODING -1 69
SWIDTH 0 0
DWIDTH 12 0
BBX 12 14 1 -1
BITMAP
1ff0
1ff0
1800
3000
3000
3000
3fc0
7fc0
6000
6000
6000
c000
ff80
ff80
ENDCHAR
STARTCHAR F
ENCODING -1 70
SWIDTH 0 0
DWIDTH 11 0
BBX 12 14 1 -1
BITMAP
1ff0
1ff0
1800
3000
3000
3000
3f80
7f80
6000
6000
6000
c000
c000
c000
ENDCHAR
STARTCHAR G
ENCODING -1 71
SWIDTH 0 0
DWIDTH 14 0
BBX 12 14 2 -1
BITMAP
03c0
0fe0
1c30
3030
6000
6000
c000
c3f0
c3f0
c060
c060
60c0
7fc0
1ec0
ENDCHAR
STARTCHAR H
ENCODING -1 72
SWIDTH 0 0
DWIDTH 14 0
BBX 13 14 2 -1
BITMAP
1818
1818
1818
3030
3030
3030
3ff0
7fe0
6060
6060
6060
c0c0
c0c0
c0c0
ENDCHAR
STARTCHAR I
ENCODING -1 73
SWIDTH 0 0
DWIDTH 6 0
BBX 5 14 2 -1
BITMAP
1800
1800
1800
3000
3000
3000
3000
6000
6000
6000
6000
c000
c000
c000
ENDCHAR
STARTCHAR J
ENCODING -1 74
SWIDTH 0 0
DWIDTH 9 0
BBX 10 14 0 -1
BITMAP
00c0
00c0
00c0
0180
0180
0180
0180
0300
0300
0300
c300
c600
fe00
7800
ENDCHAR
STARTCHAR K
ENCODING -1 75
SWIDTH 0 0
DWIDTH 14 0
BBX 13 14 1 -1
BITMAP
1838
1870
18e0
31c0
3380
3700
3e00
7e00
7700
6380
61c0
c0e0
c070
c038
ENDCHAR
STARTCHAR L
ENCODING -1 76
SWIDTH 0 0
DWIDTH 10 0
BBX 7 14 2 -1
BITMAP
1800
1800
1800
3000
3000
3000
3000
6000
6000
6000
6000
c000
fe00
fe00
ENDCHAR
STARTCHAR M
ENCODING -1 77
SWIDTH 0 0
DWIDTH 16 0
BBX 16 14 1 -1
BITMAP
1803
1807
1c0f
3c1b
361a
3636
3666
6666
66cc
66cc
638c
c398
c318
c318
ENDCHAR
STARTCHAR N
ENCODING -1 78
SWIDTH 0 0
DWIDTH 14 0
BBX 13 14 2 -1
BITMAP
1818
1818
1c18
3c30
3630
3630
3630
6660
6360
6360
6360
c1c0
c1c0
c0c0
ENDCHAR
STARTCHAR O
ENCODING -1 79
SWIDTH 0 0
DWIDTH 15 0
BBX 14 14 2 -1
BITMAP
03c0
0ff0
1c30
3018
6018
6018
c018
c018
c030
c030
c060
61c0
7f80
1e00
ENDCHAR
STARTCHAR P
ENCODING -1 80
SWIDTH 0 0
DWIDTH 12 0
BBX 11 14 2 -1
BITMAP
1f80
1fc0
38e0
3060
3060
3060
60c0
7fc0
7f00
6000
6000
c000
c000
c000
ENDCHAR
STARTCHAR Q
ENCODING -1 81
SWIDTH 0 0
DWIDTH 15 0
BBX 14 15 2 -2
BITMAP
03c0
0ff0
1c30
3018
6018
6018
c018
c018
c030
c330
c1e0
60e0
7fc0
1e60
0030
ENDCHAR
STARTCHAR R
ENCODING -1 82
SWIDTH 0 0
DWIDTH 14 0
BBX 12 14 2 -1
BITMAP
1fc0
1fe0
1870
3030
3030
3060
3fe0
7fc0
60e0
6060
6060
c0c0
c0c0
c0c0
ENDCHAR
STARTCHAR S
ENCODING -1 83
SWIDTH 0 0
DWIDTH 12 0
BBX 10 14 2 -1
BITMAP
1f00
3f80
70c0
60c0
7000
3800
1e00
0700
0380
0180
c180
c380
7f00
3c00
ENDCHAR
STARTCHAR T
ENCODING -1 84
SWIDTH 0 0
DWIDTH 11 0
BBX 10 14 3 -1
BITMAP
ffc0
ffc0
0c00
0c00
1800
1800
1800
3000
3000
3000
3000
6000
6000
6000
ENDCHAR
STARTCHAR U
ENCODING -1 85
SWIDTH 0 0
DWIDTH 14 0
BBX 12 14 3 -1
BITMAP
3030
3030
3030
6060
6060
6060
6060
c0c0
c0c0
c0c0
c180
e380
7f00
3c00
ENDCHAR
STARTCHAR V
ENCODING -1 86
SWIDTH 0 0
DWIDTH 12 0
BBX 10 14 4 -1
BITMAP
c0c0
c0c0
c180
c180
c300
c300
c600
c600
cc00
cc00
d800
f800
7000
6000
ENDCHAR
STARTCHAR W
ENCODING -1 87
SWIDTH 0 0
DWIDTH 17 0
BBX 16 14 3 -1
BITMAP
c183
c183
c386
c386
c6cc
c6cc
cccc
ccd8
d8d8
d8d8
f0f0
7070
6060
6060
ENDCHAR
STARTCHAR X
ENCODING -1 88
SWIDTH 0 0
DWIDTH 12 0
BBX 12 14 1 -1
BITMAP
3030
3070
18e0
18c0
0dc0
0f80
0700
0e00
1f00
3b00
3180
7180
e0c0
c0c0
ENDCHAR
STARTCHAR Y
ENCODING -1 89
SWIDTH 0 0
DWIDTH 9 0
BBX 10 14 1 -1
BITMAP
c0c0
c1c0
c180
c300
e700
6600
6c00
7c00
3800
3000
3000
6000
6000
6000
ENDCHAR
STARTCHAR Z
ENCODING -1 90
SWIDTH 0 0
DWIDTH 11 0
BBX 13 14 0 -1
BITMAP
0ff8
0ff8
0018
0030
0060
00c0
0180
0300
0600
0c00
1800
3000
7fc0
7fc0
ENDCHAR
STARTCHAR [
ENCODING -1 91
SWIDTH 0 0
DWIDTH 5 0
BBX 8 18 0 -5
BITMAP
0f00
0f00
1800
1800
1800
3000
3000
3000
3000
6000
6000
6000
6000
c000
c000
c000
f000
f000
ENDCHAR
STARTCHAR \
ENCODING -1 92
SWIDTH 0 0
DWIDTH 5 0
BBX 4 14 2 -1
BITMAP
c000
c000
c000
c000
6000
6000
6000
6000
6000
3000
3000
3000
3000
3000
ENDCHAR
STARTCHAR ]
ENCODING -1 93
SWIDTH 0 0
DWIDTH 5 0
BBX 8 18 -1 -5
BITMAP
0f00
0f00
0300
0300
0300
0600
0600
0600
0600
0c00
0c00
0c00
0c00
1800
1800
1800
f000
f000
ENDCHAR
STARTCHAR ^
ENCODING -1 94
SWIDTH 0 0
DWIDTH 10 0
BBX 8 8 2 4
BITMAP
0c00
1c00
3600
3600
6600
6300
c300
c300
ENDCHAR
STARTCHAR _
ENCODING -1 95
SWIDTH 0 0
DWIDTH 10 0
BBX 11 2 -1 -5
BITMAP
ffe0
ffe0
ENDCHAR
STARTCHAR `
ENCODING -1 96
SWIDTH 0 0
DWIDTH 4 0
BBX 3 4 3 9
BITMAP
6000
8000
c000
c000
ENDCHAR
STARTCHAR a
ENCODING -1 97
SWIDTH 0 0
DWIDTH 10 0
BBX 9 10 1 -1
BITMAP
0f00
3f80
3180
0780
1f00
7b00
e300
c600
fe00
7600
ENDCHAR
STARTCHAR b
ENCODING -1 98
SWIDTH 0 0
DWIDTH 11 0
BBX 10 14 1 -1
BITMAP
1800
1800
1800
3000
3700
3f80
39c0
70c0
60c0
60c0
6180
f380
ff00
de00
ENDCHAR
STARTCHAR c
ENCODING -1 99
SWIDTH 0 0
DWIDTH 9 0
BBX 9 10 1 -1
BITMAP
0f00
3f80
7180
6000
c000
c000
c000
e600
7e00
3800
ENDCHAR
STARTCHAR d
ENCODING -1 100
SWIDTH 0 0
DWIDTH 11 0
BBX 11 14 1 -1
BITMAP
0060
0060
0060
00c0
1ec0
3fc0
73c0
6180
c180
c180
c380
e700
7f00
3b00
ENDCHAR
STARTCHAR e
ENCODING -1 101
SWIDTH 0 0
DWIDTH 10 0
BBX 9 10 1 -1
BITMAP
0f00
3f80
7180
6180
ff80
ff00
c000
e600
7e00
3800
ENDCHAR
STARTCHAR f
ENCODING -1 102
SWIDTH 0 0
DWIDTH 6 0
BBX 7 14 1 -1
BITMAP
0e00
1e00
1800
3000
fc00
fc00
3000
6000
6000
6000
6000
c000
c000
c000
ENDCHAR
STARTCHAR g
ENCODING -1 103
SWIDTH 0 0
DWIDTH 10 0
BBX 11 14 0 -5
BITMAP
0760
1fe0
39e0
30c0
60c0
60c0
61c0
7380
3f80
1d80
0300
c700
fe00
3800
ENDCHAR
STARTCHAR h
ENCODING -1 104
SWIDTH 0 0
DWIDTH 11 0
BBX 10 14 1 -1
BITMAP
1800
1800
1800
3000
3380
37c0
3cc0
78c0
7180
6180
6180
c300
c300
c300
ENDCHAR
STARTCHAR i
ENCODING -1 105
SWIDTH 0 0
DWIDTH 4 0
BBX 5 14 1 -1
BITMAP
1800
1800
0000
0000
3000
3000
3000
6000
6000
6000
6000
c000
c000
c000
ENDCHAR
STARTCHAR j
ENCODING -1 106
SWIDTH 0 0
DWIDTH 5 0
BBX 8 18 -2 -5
BITMAP
0300
0300
0000
0000
0600
0600
0600
0600
0c00
0c00
0c00
0c00
1800
1800
1800
3000
f000
e000
ENDCHAR
STARTCHAR k
ENCODING -1 107
SWIDTH 0 0
DWIDTH 9 0
BBX 9 14 1 -1
BITMAP
1800
1800
1800
3000
3180
3300
3600
7c00
7800
6c00
6600
c600
c300
c300
ENDCHAR
STARTCHAR l
ENCODING -1 108
SWIDTH 0 0
DWIDTH 4 0
BBX 5 14 1 -1
BITMAP
1800
1800
1800
3000
3000
3000
3000
6000
6000
6000
6000
c000
c000
c000
ENDCHAR
STARTCHAR m
ENCODING -1 109
SWIDTH 0 0
DWIDTH 14 0
BBX 14 10 1 -1
BITMAP
3318
37bc
39cc
718c
6318
6318
6318
c630
c630
c630
ENDCHAR
STARTCHAR n
ENCODING -1 110
SWIDTH 0 0
DWIDTH 11 0
BBX 10 10 1 -1
BITMAP
3380
37c0
3cc0
38c0
7180
6180
6180
c300
c300
c300
ENDCHAR
STARTCHAR o
ENCODING -1 111
SWIDTH 0 0
DWIDTH 10 0
BBX 9 10 1 -1
BITMAP
0e00
3f00
7380
6180
c180
c180
c300
e700
7e00
3800
ENDCHAR
STARTCHAR p
ENCODING -1 112
SWIDTH 0 0
DWIDTH 11 0
BBX 11 14 0 -5
BITMAP
1b80
1fc0
1ce0
3860
3060
3060
30c0
79c0
7f80
6f00
6000
c000
c000
c000
ENDCHAR
STARTCHAR q
ENCODING -1 113
SWIDTH 0 0
DWIDTH 10 0
BBX 10 14 1 -5
BITMAP
1ec0
3fc0
73c0
6180
c180
c180
c380
e700
7f00
3b00
0300
0600
0600
0600
ENDCHAR
STARTCHAR r
ENCODING -1 114
SWIDTH 0 0
DWIDTH 8 0
BBX 8 10 1 -1
BITMAP
3700
3f00
3800
7000
6000
6000
6000
c000
c000
c000
ENDCHAR
STARTCHAR s
ENCODING -1 115
SWIDTH 0 0
DWIDTH 10 0
BBX 9 10 1 -1
BITMAP
0f00
3f80
7180
6000
3c00
1f00
0300
c300
fe00
7c00
ENDCHAR
STARTCHAR t
ENCODING -1 116
SWIDTH 0 0
DWIDTH 6 0
BBX 6 13 1 -1
BITMAP
1800
1800
3000
fc00
fc00
3000
6000
6000
6000
c000
c000
f000
7000
ENDCHAR
STARTCHAR u
ENCODING -1 117
SWIDTH 0 0
DWIDTH 10 0
BBX 10 10 1 -1
BITMAP
30c0
30c0
30c0
6180
6180
6380
c700
cf00
fb00
7300
ENDCHAR
STARTCHAR v
ENCODING -1 118
SWIDTH 0 0
DWIDTH 9 0
BBX 8 10 2 -1
BITMAP
c300
c300
c700
c600
ce00
cc00
d800
f800
7000
6000
ENDCHAR
STARTCHAR w
ENCODING -1 119
SWIDTH 0 0
DWIDTH 13 0
BBX 12 10 2 -1
BITMAP
c630
c630
c630
ce60
ce60
dac0
dac0
7380
7380
6300
ENDCHAR
STARTCHAR x
ENCODING -1 120
SWIDTH 0 0
DWIDTH 10 0
BBX 10 10 1 -1
BITMAP
30c0
30c0
1980
1b00
0e00
1c00
3600
6600
c300
c300
ENDCHAR
STARTCHAR y
ENCODING -1 121
SWIDTH 0 0
DWIDTH 10 0
BBX 10 14 0 -5
BITMAP
30c0
30c0
30c0
3180
3180
3300
1b00
1e00
0e00
0c00
1800
1800
3000
6000
ENDCHAR
STARTCHAR z
ENCODING -1 122
SWIDTH 0 0
DWIDTH 9 0
BBX 9 10 1 -1
BITMAP
3f80
3f80
0300
0600
0c00
1800
3000
6000
fe00
fe00
ENDCHAR
STARTCHAR {
ENCODING -1 123
SWIDTH 0 0
DWIDTH 6 0
BBX 8 18 1 -5
BITMAP
0700
0c00
1800
1800
1800
1800
3000
6000
c000
6000
6000
6000
6000
c000
c000
c000
c000
7000
ENDCHAR
STARTCHAR |
ENCODING -1 124
SWIDTH 0 0
DWIDTH 4 0
BBX 6 18 0 -5
BITMAP
0c00
0c00
0c00
1800
1800
1800
1800
3000
3000
3000
3000
6000
6000
6000
6000
c000
c000
c000
ENDCHAR
STARTCHAR }
ENCODING -1 125
SWIDTH 0 0
DWIDTH 7 0
BBX 8 18 0 -5
BITMAP
1c00
0600
0600
0600
0c00
0c00
0c00
0600
0300
0600
0c00
1800
1800
1800
1800
1800
3000
e000
ENDCHAR
STARTCHAR ~
ENCODING -1 126
SWIDTH 0 0
DWIDTH 10 0
BBX 8 3 2 3
BITMAP
7300
ff00
ce00
ENDCHAR
ENDFONT
